<?xml version="1.0" encoding="utf-8"?>
<!-- Generator: Adobe Illustrator 27.5.0, SVG Export Plug-In . SVG Version: 6.00 Build 0)  -->
<svg version="1.1" id="Capa_1" xmlns="http://www.w3.org/2000/svg" xmlns:xlink="http://www.w3.org/1999/xlink" x="0px" y="0px"
	 viewBox="0 0 2122 2122" style="enable-background:new 0 0 2122 2122;" xml:space="preserve">
<g>
	<path style="fill:#F7B315;" d="M1744.146,1176.21c-2.295-132.982-117.851-266.071-250.119-251.213
		c-75.06,8.361-137.81,58.607-208.241,86.084c41.496-52.902,52.914-169.486,59.791-215.35
		c16.748-111.86,14.212-226.79-8.251-337.694c-6.926-34.494-19.744-66.963-38.073-95.187c-6.273-9.732-13.094-18.883-20.692-27.455
		c-32.02-36.458-75.469-61.862-129.04-68.556c-42.999-5.373-80.906,2.685-112.565,20.576c-9.68,5.336-18.782,11.64-27.223,18.828
		c-43.468,36.485-70.417,93.95-75.788,157.465c-1.971,23.323-2.184,47.007-0.83,70.878c-22.391-18.846-47.155-33.967-73.375-44.404
		c-10.743-4.331-21.596-7.847-32.745-10.451c-47.204-11.272-97.333-6.919-144.943,18.566c-38.2,20.452-64.492,48.925-80,81.826
		c-4.814,9.926-8.602,20.336-11.348,31.084c-14.402,54.88-3.218,117.357,29.082,172.315c20.607,35.042,46.128,67.91,75.336,98.415
		c6.501,6.807,13.171,13.494,20.114,20.031c70.616,67.697,158.426,121.948,245.57,159.385c-11.544,2.937-22.965,6.377-34.236,10.478
		c-18.172,6.726-35.788,15.182-52.32,25.184c-18.172,11.129-35.165,23.987-50.859,38.367
		c-59.299,54.799-98.845,131.55-105.904,211.934c-22.021,1.492-44.416,6.023-62.63,8.277
		c-72.143,8.925-144.286,17.849-216.421,26.787c-6.94,0.857-13.869,1.706-20.801,2.575c-37.759,4.661-61.368,31.038-14.451,49.656
		c92.555,36.711,187.146,68.279,283.208,94.491c20.859,5.689,44.82,13.077,65.919,6.719
		c43.363,83.702,122.115,127.909,215.433,144.157c14.08,2.392,28.538,4.206,43.28,5.462c37.31,3.131,76.253,2.305,115.821-1.705
		c82.708-8.382,167.568-30.837,244-61.459c47.245-18.892,91.259-40.817,129.354-64.651c22.185-13.585,42.248-27.821,59.951-42.332
		C1662.969,1430.75,1746.496,1309.281,1744.146,1176.21z"/>
	<path style="fill:#B2CED3;" d="M1337.325,458.037c-6.926-34.494-19.744-66.963-38.073-95.187
		c-6.273-9.732-13.094-18.883-20.692-27.455c-32.02-36.458-75.469-61.862-129.04-68.556c-42.999-5.373-80.906,2.685-112.565,20.576
		c-9.68,5.336-18.782,11.64-27.223,18.828c-43.468,36.485-70.417,93.95-75.788,157.465c-1.971,23.323-2.184,47.007-0.83,70.878
		c-22.391-18.846-47.155-33.967-73.375-44.404c-10.743-4.331-21.596-7.847-32.745-10.451
		c-47.204-11.272-97.333-6.919-144.943,18.566c-38.2,20.452-64.492,48.925-80,81.826c-4.814,9.926-8.602,20.336-11.348,31.084
		c-14.402,54.88-3.218,117.357,29.082,172.315c20.607,35.042,46.128,67.91,75.336,98.415c6.501,6.807,13.171,13.494,20.114,20.031
		c70.616,67.697,158.426,121.948,245.57,159.385c21.301-5.418,43.015-9.088,64.955-11.791c25.479-3.097,51.29-4.943,77.135-6.783
		c6.281-0.448,12.563-0.896,18.846-1.361c6.855-0.506,13.706-1.031,20.553-1.602c27.207-2.315,54.263-5.358,80.756-10.7
		c14.453-2.914,28.731-6.506,42.772-11.04c4.166-1.211,8.209-2.591,12.309-4.109c2.563-0.93,5.109-1.893,7.652-2.885
		c41.496-52.902,52.914-169.486,59.791-215.35C1362.324,683.871,1359.788,568.942,1337.325,458.037z"/>
	<path style="fill:#E8F5F8;" d="M1203.553,934.779c-3.47-9.139-7.22-18.23-11.104-27.125c-16.25-37.191-34.832-70.981-44.856-90.859
		c-37.686-74.695-84.948-144.655-140.338-207.409c-7.515-8.514-15.173-16.899-22.987-25.14
		c-12.458-13.146-25.284-25.943-38.471-38.356c-4.134-3.903-8.362-7.674-12.682-11.305c-22.391-18.846-47.155-33.967-73.375-44.404
		c-10.743-4.331-21.596-7.847-32.745-10.451c-47.204-11.272-97.333-6.919-144.943,18.566c-38.2,20.452-64.492,48.925-80,81.826
		c-4.814,9.926-8.602,20.336-11.348,31.084c-14.402,54.88-3.218,117.357,29.082,172.315c20.607,35.042,46.128,67.91,75.336,98.415
		c6.501,6.807,13.171,13.494,20.114,20.031c70.616,67.697,158.426,121.948,245.57,159.385c21.301-5.418,43.015-9.088,64.955-11.791
		c25.479-3.097,51.29-4.943,77.135-6.783c6.281-0.448,12.563-0.896,18.846-1.361c6.855-0.506,13.706-1.031,20.553-1.602
		c27.207-2.315,54.263-5.358,80.756-10.7C1224.945,1001.528,1216.098,967.823,1203.553,934.779z"/>
	<path style="fill:#8AAEB1;" d="M1154.295,486.614c4.037,8.438,7.885,16.853,11.383,25.465l-0.098,0.095
		c-55.985,44.871-116.772,64.675-181.311,72.073c7.813,8.241,15.471,16.626,22.987,25.14
		c60.135-11.335,118.164-37.86,167.231-75.366c44.411,118.114,49.245,251.205,17.963,373.633
		c3.885,8.894,7.634,17.985,11.104,27.125c39.635-139.411,47.565-282.398-5.136-420.528c46.093-41.433,82.104-93.277,100.836-151.4
		c-6.273-9.732-13.095-18.883-20.693-27.455c-17.63,58.928-44.168,111.721-89.412,156.046l-1.358-3.24
		c-33.011-75.16-82.043-140.821-143.707-194.659l-7.128-6.128c-9.679,5.336-18.781,11.641-27.222,18.828
		C1070.53,355.826,1119.727,415.731,1154.295,486.614z"/>
	<path style="fill:#B2CED3;" d="M1102.896,1042.778c6.282-0.447,12.563-0.896,18.847-1.361
		c-47.455-148.515-125.413-281.289-256.862-369.392c13.702-60.455,13.141-123.573-5.141-181.842
		c-10.744-4.331-21.597-7.847-32.745-10.452c19.649,58.285,28.472,116.708,17.141,179.017l-2.976-1.848
		c-70.362-42.299-148.325-67.57-229.746-75.898l-9.361-0.88c-4.814,9.926-8.601,20.337-11.347,31.084
		c78.261,5.356,153.035,25.847,222.178,63.74c8.178,4.546,16.179,9.199,24.03,14.205l-0.034,0.143
		c-24.398,85.015-76.741,143.153-141.757,192.642c6.501,6.808,13.171,13.494,20.115,20.031
		c66.899-47.58,116.678-120.331,141.524-199.983C974.693,781.867,1062.493,906.452,1102.896,1042.778z"/>
	<path style="fill:#3B2111;" d="M717.488,1347.315c-22.021,1.492-44.417,6.022-62.63,8.277
		c-72.143,8.925-144.286,17.85-216.421,26.787c-6.94,0.857-13.868,1.706-20.801,2.575c-37.759,4.661-61.368,31.038-14.452,49.656
		c92.556,36.711,187.147,68.279,283.208,94.491c20.859,5.689,44.82,13.077,65.919,6.719c-21.633-41.756-34.46-93.34-35.889-156.191
		C716.177,1368.822,716.546,1358.038,717.488,1347.315z"/>
	<path style="fill:#3B2111;" d="M1057.272,1470.301c-29.575-132.32-56.097-268.859-34.419-402.672
		c0.901-5.945,1.978-12,2.908-18.068c-21.94,2.703-43.654,6.373-64.954,11.791c-11.544,2.937-22.966,6.378-34.237,10.479
		c-18.172,6.726-35.788,15.182-52.319,25.184c-10.491,52.485-11.542,106.776-7.888,160.169c2.35,34.442,6.723,68.776,12.036,102.882
		c16.854,109.728,42.712,219.581,89.345,319.913c14.081,2.392,28.538,4.206,43.28,5.462c37.311,3.131,76.253,2.305,115.82-1.705
		c-8.369-16.678-16.227-33.687-23.289-51.044C1082.455,1580.445,1069.557,1525.369,1057.272,1470.301z"/>
	<path style="fill:#3B2111;" d="M1403.172,1421.403c-40.088-75.663-78.997-152.414-105.372-233.9
		c-17.749-54.785-29.669-112.043-31.976-169.428c-14.042,4.533-28.321,8.126-42.772,11.039c-26.494,5.341-53.551,8.385-80.758,10.7
		c-4.062,69.377,12.938,136.749,35.495,202.197c46.447,134.865,111.651,263.134,193.054,380.264
		c47.246-18.892,91.26-40.817,129.355-64.65C1458.038,1522.192,1429.43,1470.873,1403.172,1421.403z"/>
	<path style="fill:#3B2111;" d="M1542.67,1176.027c29.006-17.763,38.115-55.655,20.36-84.648
		c-17.762-29.005-55.654-38.115-84.66-20.352c-28.993,17.755-38.115,55.655-20.352,84.66
		C1475.772,1184.68,1513.676,1193.782,1542.67,1176.027z"/>
</g>
</svg>
